<svg width="100" height="100" viewBox="0 0 100 100" fill="none" xmlns="http://www.w3.org/2000/svg">
<g clip-path="url(#clip0_569_1052)">
<path d="M3.10017 67.1863L31.7263 44.8211L19.3017 10.6847L49.4183 30.9986L78.0444 8.63338L68.0313 43.5533L98.1479 63.8671L61.8429 65.1349L51.8298 100.055L39.4052 65.9185L3.10017 67.1863Z" fill="#FFB800"/>
<path d="M50 0L61.2257 34.5491H97.5528L68.1636 55.9017L79.3893 90.4509L50 69.0983L20.6107 90.4509L31.8364 55.9017L2.44717 34.5491H38.7743L50 0Z" fill="#F58484"/>
<path d="M50 25L55.6129 42.2746H73.7764L59.0818 52.9508L64.6946 70.2254L50 59.5491L35.3054 70.2254L40.9182 52.9508L26.2236 42.2746H44.3871L50 25Z" fill="white"/>
</g>
<defs>
<clipPath id="clip0_569_1052">
<rect width="100" height="100" fill="white"/>
</clipPath>
</defs>
</svg>
